<svg xmlns="http://www.w3.org/2000/svg" viewBox="0 0 256 256" width="256" height="256"><path d="M19.12 0a3.86 3.86 0 0 0-3.9 4.26l19.84 222.49a6.65 6.65 0 0 0 4.5 5.41l84.17 23.37a18.24 18.24 0 0 0 8.25 0l84.43-23.41a6.65 6.65 0 0 0 4.5-5.41L240.78 4.26a3.84 3.84 0 0 0-3.9-4.26zm179.42 51c-.19 2-2.22 24.57-2.24 24.57H92.21a3.85 3.85 0 0 0-3.93 3.78v.48l1.84 20.48a4.77 4.77 0 0 0 4.66 4.26H190a3.44 3.44 0 0 1 3.48 3.38v.42c-.19 2-7.1 79.47-7.17 80.79s-2.05 2.91-4.33 3.54l-49.74 13.79-4.24 1.19s-1.91-.5-4.18-1.13L74 192.74a6.66 6.66 0 0 1-4.51-5.41l-3.2-36a3.84 3.84 0 0 1 3.9-4.26h19.89a4.79 4.79 0 0 1 4.66 4.26L96 165.44a6.61 6.61 0 0 0 4.51 5.38l23.29 6.28 4.14 1.12 4.15-1.12 23.34-6.3a6.63 6.63 0 0 0 4.5-5.38l2.53-28.21A3.85 3.85 0 0 0 159 133a3.62 3.62 0 0 0-.47 0h-89.6a4.78 4.78 0 0 1-4.66-4.26s-6.74-75.54-6.93-77.63a3.67 3.67 0 0 1 3.52-3.81h133.78a3.66 3.66 0 0 1 3.89 3.42v.32z"/></svg>