<svg xmlns="http://www.w3.org/2000/svg" viewBox="0 0 256 256" width="256" height="256"><path d="M0 0v256h256V0zm134.93 219.25a30.2 30.2 0 0 1-19.32 15.13 46.45 46.45 0 0 1-34.22-4.2A38.47 38.47 0 0 1 67.28 214q9.73-6 19.45-11.93a11.78 11.78 0 0 1 1.36 2.19 20.56 20.56 0 0 0 8.84 9.21 13.45 13.45 0 0 0 16.72-5 101.36 101.36 0 0 0 1.46-28.93c0-20.69.1-41.23.1-61.91h24c0 22 .11 44 0 65.92a74.36 74.36 0 0 1-4.28 35.7zm99.33-6.77c-8.33 28.48-54.72 29.4-73.28 10.58a43.38 43.38 0 0 1-8.71-11.85c9.86-5.67 9.86-5.67 19.46-11.26a27.4 27.4 0 0 0 18.68 14.2c11.76 1.44 23.56-2.6 20.93-15.09-2.73-10.24-24.06-12.68-38.6-23.55a33.51 33.51 0 0 1-6.7-46.92l.61-.8a34.25 34.25 0 0 1 18.16-10.71l7.55-1a36.08 36.08 0 0 1 30.17 11 46.85 46.85 0 0 1 6.15 8.27c-7.71 4.91-7.69 4.87-18.74 12a17.87 17.87 0 0 0-10.41-9.67 12.28 12.28 0 0 0-16.07 6.62 3.65 3.65 0 0 0-.14.35 13.11 13.11 0 0 0 .46 7.49c2.61 5.94 11.34 8.52 19.18 12.12 22.53 9.15 30.18 19 32 30.64a35.17 35.17 0 0 1-.74 17.64z"/></svg>