<svg xmlns="http://www.w3.org/2000/svg" viewBox="0 0 256 256" width="256" height="256"><path d="M112.53 95.89a17.61 17.61 0 0 1 2.46 9.5c0 4.69-1.07 8.32-3.31 11a18.33 18.33 0 0 1-8.75 5.66A39.77 39.77 0 0 1 90.67 124H85c-1.28 0-2.66-.11-4.16-.22V87.89a25 25 0 0 1 4.38-.1c2-.11 4.48-.11 7.25-.11a31.28 31.28 0 0 1 12.59 2.13 15.51 15.51 0 0 1 7.47 6.08z"/><path d="M210.67 3.2H45.33A45.3 45.3 0 0 0 0 48.53v158.94a45.3 45.3 0 0 0 45.33 45.33h165.34A45.3 45.3 0 0 0 256 207.47V48.53A45.3 45.3 0 0 0 210.67 3.2zm-78.83 124.27a36.58 36.58 0 0 1-17.17 13c-7.26 2.67-15.26 3.63-24 3.63-2.56 0-4.27 0-5.34-.11s-2.56-.11-4.58-.11v34.24a1.34 1.34 0 0 1-1.18 1.5H58.88c-.85 0-1.28-.43-1.28-1.39V68.48c0-.75.32-1.17 1.07-1.17 1.81 0 3.52 0 6-.11s5.23-.11 8.11-.21 6-.11 9.28-.22 6.5-.1 9.7-.1c8.75 0 16 1.06 22 3.3A38.13 38.13 0 0 1 128 78.72a34 34 0 0 1 7.79 12.16 40.84 40.84 0 0 1 2.45 13.87q0 13.76-6.4 22.72zM207.47 169a26.73 26.73 0 0 1-11.95 9.49c-5.23 2.24-11.63 3.42-19.31 3.42a73.46 73.46 0 0 1-14.5-1.39 42.89 42.89 0 0 1-10.88-3.41 2.12 2.12 0 0 1-1.18-2v-18.63a1.16 1.16 0 0 1 .43-1 .81.81 0 0 1 1 .11 45.5 45.5 0 0 0 13.23 5.22 49.48 49.48 0 0 0 12.58 1.6c4.06 0 6.94-.53 8.86-1.49a5 5 0 0 0 2.88-4.48c0-1.49-.86-2.88-2.56-4.27s-5.23-3-10.46-5a65.15 65.15 0 0 1-15.14-7.68 27.64 27.64 0 0 1-8.11-9.07 22.78 22.78 0 0 1-2.45-10.88 25.12 25.12 0 0 1 3.62-12.9 26.39 26.39 0 0 1 11.2-9.82c5-2.56 11.31-3.73 18.88-3.73a91.9 91.9 0 0 1 13.23 1 37.8 37.8 0 0 1 9.16 2.44 1.89 1.89 0 0 1 1.07 1 5.26 5.26 0 0 1 .21 1.28v17.39a1.32 1.32 0 0 1-.53 1.07 2.89 2.89 0 0 1-1.92 0 37.72 37.72 0 0 0-10.24-3.63 56.45 56.45 0 0 0-11.95-1.39 21.84 21.84 0 0 0-6.4.75 5.49 5.49 0 0 0-3.3 2.13 5.62 5.62 0 0 0-.86 2.88 4.78 4.78 0 0 0 1.07 2.78 12.11 12.11 0 0 0 3.63 2.88c2.45 1.28 5 2.45 7.57 3.52a77.26 77.26 0 0 1 16.43 7.78 24.74 24.74 0 0 1 8.42 8.86 23 23 0 0 1 2.46 11 24.89 24.89 0 0 1-4.19 14.17z"/></svg>