<svg xmlns="http://www.w3.org/2000/svg" viewBox="0 0 256 256" width="256" height="256"><path d="M256 142.05V114l-36.06-12.31a95.06 95.06 0 0 0-8.29-20l16.8-34.21-19.88-19.93-34.21 16.8a95.06 95.06 0 0 0-20-8.29L142.05 0H114l-12.36 36.06a95.06 95.06 0 0 0-20 8.29l-34.21-16.8-19.88 19.88 16.8 34.21a95.06 95.06 0 0 0-8.29 20L0 114v28.1l36.06 12.31a95.06 95.06 0 0 0 8.29 20l-16.8 34.21 19.88 19.88 34.21-16.8a95.06 95.06 0 0 0 20 8.29L114 256h28.1l12.31-36.06a95.06 95.06 0 0 0 20-8.29l34.21 16.8 19.88-19.88-16.8-34.21a95.06 95.06 0 0 0 8.29-20zM169.16 128A41.16 41.16 0 1 1 128 86.84 41.16 41.16 0 0 1 169.16 128z"/></svg>