<svg xmlns="http://www.w3.org/2000/svg"><symbol id="css" viewBox="0 0 256 256"><path d="M16 0l20.4 230.4L128 256l91.57-25.6L240 0zm170 191.06l-58 16h-.05L69.88 191l-4.09-45.38H94.2l2.11 23.56 31.54 8.52 31.58-8.51 4.3-39.22-99.32.26-2.83-26.82 104.53-1.22 2.11-28.68-109.44.31-1.84-26.67h141.83z"/></symbol><symbol id="instagram" viewBox="0 0 256 256"><path d="M128 23.06c34.18 0 38.23.13 51.72.75 12.48.57 19.26 2.65 23.77 4.41a39.58 39.58 0 0 1 14.72 9.57 39.58 39.58 0 0 1 9.57 14.72c1.76 4.51 3.84 11.29 4.41 23.77.62 13.49.75 17.54.75 51.72s-.13 38.23-.75 51.72c-.57 12.48-2.65 19.26-4.41 23.77a42.33 42.33 0 0 1-24.29 24.29c-4.51 1.76-11.29 3.84-23.77 4.41-13.49.62-17.54.75-51.72.75s-38.23-.13-51.72-.75c-12.48-.57-19.26-2.65-23.77-4.41a39.58 39.58 0 0 1-14.72-9.57 39.58 39.58 0 0 1-9.57-14.72c-1.76-4.51-3.84-11.29-4.41-23.77-.62-13.49-.75-17.54-.75-51.72s.13-38.23.75-51.72c.57-12.48 2.65-19.28 4.41-23.77a39.58 39.58 0 0 1 9.57-14.72 39.58 39.58 0 0 1 14.72-9.57c4.49-1.76 11.29-3.84 23.77-4.41 13.49-.62 17.54-.75 51.72-.75M128 0C93.24 0 88.88.15 75.23.77S52.3 3.56 44.15 6.72a62.88 62.88 0 0 0-22.67 14.76A62.88 62.88 0 0 0 6.72 44.15C3.56 52.3 1.39 61.6.77 75.23S0 93.24 0 128s.15 39.12.77 52.77 2.79 22.93 5.95 31.08a62.88 62.88 0 0 0 14.76 22.67 62.88 62.88 0 0 0 22.67 14.76c8.15 3.16 17.45 5.33 31.08 5.95s18 .77 52.77.77 39.12-.15 52.77-.77 22.93-2.79 31.08-5.95a65.42 65.42 0 0 0 37.43-37.43c3.16-8.15 5.33-17.45 5.95-31.08s.77-18 .77-52.77-.15-39.12-.77-52.77-2.79-22.93-5.95-31.08a62.88 62.88 0 0 0-14.76-22.67 62.88 62.88 0 0 0-22.67-14.76C203.7 3.56 194.4 1.39 180.77.77S162.76 0 128 0z"/><path d="M128 62.27A65.73 65.73 0 1 0 193.73 128 65.73 65.73 0 0 0 128 62.27zm0 108.4A42.67 42.67 0 1 1 170.67 128 42.68 42.68 0 0 1 128 170.67z"/><circle cx="196.33" cy="59.67" r="15.36"/></symbol><symbol id="ai" viewBox="0 0 256 256"><path d="M115.21 123.62c1 2.78 1.81 5.44 2.45 7.68h-27.1c1.6-4.48 3.21-9.49 4.7-15 1.7-5.33 3.3-10.66 4.9-15.78a128.32 128.32 0 0 0 3.62-13.76h.22c.75 2.56 1.5 5.33 2.35 8.32s1.82 6.19 2.87 9.49 2 6.51 3.1 9.82 1.93 6.35 2.89 9.23z"/><path d="M210.66 3.19H45.33A45.31 45.31 0 0 0 0 48.46v159a45.31 45.31 0 0 0 45.26 45.34h165.4A45.3 45.3 0 0 0 256 207.55v-159a45.31 45.31 0 0 0-45.26-45.36zm-53.91 176.32h-22.3a1.59 1.59 0 0 1-1.7-1.18L124 153H84.32l-8.1 25a1.87 1.87 0 0 1-2 1.5H54.16c-1.17 0-1.48-.64-1.17-1.91l34.35-98.84c.32-1.06.64-2.23 1.07-3.52a37.57 37.57 0 0 0 .64-6.94 1.06 1.06 0 0 1 .86-1.17h27.62c.86 0 1.28.32 1.39.85l38.94 109.83c.33 1.18 0 1.71-1.06 1.71zm36.25-1.59c0 1.16-.43 1.7-1.39 1.7h-20.88a1.48 1.48 0 0 1-1.61-1.35 1.36 1.36 0 0 1 0-.35V95.78c0-1.07.43-1.5 1.39-1.5h21.17c1 0 1.39.53 1.39 1.5zm-2.23-96.32a12.52 12.52 0 0 1-9.7 3.73 13.15 13.15 0 0 1-9.49-3.73 13.84 13.84 0 0 1-3.58-9.81 12.52 12.52 0 0 1 3.85-9.5 13.65 13.65 0 0 1 9.49-3.73 12.75 12.75 0 0 1 9.7 3.73 14.66 14.66 0 0 1-.21 19.31z"/></symbol><symbol id="messages" viewBox="0 0 256 256"><path d="M171.51 39.85a57.17 57.17 0 1 1 0 114.34h-61.63l-3.81 5.09-23.49 31.39v-36.48h-12.7a57.17 57.17 0 1 1 0-114.34h101.63m0-12.71H69.88a69.88 69.88 0 0 0 0 139.76v62l46.36-62h55.27a69.88 69.88 0 0 0 0-139.76z"/><path d="M96 141.44a46.33 46.33 0 0 0 46.33 46.33h36.65l30.74 41.09v-41.09a46.33 46.33 0 0 0 0-92.66h-67.44A46.33 46.33 0 0 0 96 141.44z"/></symbol><symbol id="psd" viewBox="0 0 256 256"><path d="M112.53 95.89a17.61 17.61 0 0 1 2.46 9.5c0 4.69-1.07 8.32-3.31 11a18.33 18.33 0 0 1-8.75 5.66A39.77 39.77 0 0 1 90.67 124H85c-1.28 0-2.66-.11-4.16-.22V87.89a25 25 0 0 1 4.38-.1c2-.11 4.48-.11 7.25-.11a31.28 31.28 0 0 1 12.59 2.13 15.51 15.51 0 0 1 7.47 6.08z"/><path d="M210.67 3.2H45.33A45.3 45.3 0 0 0 0 48.53v158.94a45.3 45.3 0 0 0 45.33 45.33h165.34A45.3 45.3 0 0 0 256 207.47V48.53A45.3 45.3 0 0 0 210.67 3.2zm-78.83 124.27a36.58 36.58 0 0 1-17.17 13c-7.26 2.67-15.26 3.63-24 3.63-2.56 0-4.27 0-5.34-.11s-2.56-.11-4.58-.11v34.24a1.34 1.34 0 0 1-1.18 1.5H58.88c-.85 0-1.28-.43-1.28-1.39V68.48c0-.75.32-1.17 1.07-1.17 1.81 0 3.52 0 6-.11s5.23-.11 8.11-.21 6-.11 9.28-.22 6.5-.1 9.7-.1c8.75 0 16 1.06 22 3.3A38.13 38.13 0 0 1 128 78.72a34 34 0 0 1 7.79 12.16 40.84 40.84 0 0 1 2.45 13.87q0 13.76-6.4 22.72zM207.47 169a26.73 26.73 0 0 1-11.95 9.49c-5.23 2.24-11.63 3.42-19.31 3.42a73.46 73.46 0 0 1-14.5-1.39 42.89 42.89 0 0 1-10.88-3.41 2.12 2.12 0 0 1-1.18-2v-18.63a1.16 1.16 0 0 1 .43-1 .81.81 0 0 1 1 .11 45.5 45.5 0 0 0 13.23 5.22 49.48 49.48 0 0 0 12.58 1.6c4.06 0 6.94-.53 8.86-1.49a5 5 0 0 0 2.88-4.48c0-1.49-.86-2.88-2.56-4.27s-5.23-3-10.46-5a65.15 65.15 0 0 1-15.14-7.68 27.64 27.64 0 0 1-8.11-9.07 22.78 22.78 0 0 1-2.45-10.88 25.12 25.12 0 0 1 3.62-12.9 26.39 26.39 0 0 1 11.2-9.82c5-2.56 11.31-3.73 18.88-3.73a91.9 91.9 0 0 1 13.23 1 37.8 37.8 0 0 1 9.16 2.44 1.89 1.89 0 0 1 1.07 1 5.26 5.26 0 0 1 .21 1.28v17.39a1.32 1.32 0 0 1-.53 1.07 2.89 2.89 0 0 1-1.92 0 37.72 37.72 0 0 0-10.24-3.63 56.45 56.45 0 0 0-11.95-1.39 21.84 21.84 0 0 0-6.4.75 5.49 5.49 0 0 0-3.3 2.13 5.62 5.62 0 0 0-.86 2.88 4.78 4.78 0 0 0 1.07 2.78 12.11 12.11 0 0 0 3.63 2.88c2.45 1.28 5 2.45 7.57 3.52a77.26 77.26 0 0 1 16.43 7.78 24.74 24.74 0 0 1 8.42 8.86 23 23 0 0 1 2.46 11 24.89 24.89 0 0 1-4.19 14.17z"/></symbol><symbol id="twitter" viewBox="0 0 256 256"><path d="M128 79.62c-7.27-58.28 63.9-80.11 91.77-36.72 19.47-10.28 23.78-13.07 27.7-14.62-5 19.7-18.25 31.07-22.76 33.44L256 51.61C245.56 74 230.53 79.83 230.53 79.83 236.31 176.1 138 284.7 0 212.43c48.23 3.07 74.39-20.66 74.39-20.66-28.56.78-49.94-25.84-49.18-35.31 14.43 4.38 33.3 6.28 41.53.7-48.65-16-58.28-46.08-58.95-59.65 7.07 2.84 14.92 6.25 24.07 7.57C-2.81 82.24 6.56 48.87 15.58 37 50.72 82.62 128 79.62 128 79.62z"/></symbol><symbol id="facebook" viewBox="0 0 256 256"><path d="M256 128a128 128 0 1 0-148 126.44V165H75.5v-37H108V99.8c0-32.08 19.11-49.8 48.35-49.8A196.86 196.86 0 0 1 185 52.5V84h-16.14C153 84 148 93.87 148 104v24h35.5l-5.68 37H148v89.44A128 128 0 0 0 256 128z"/></symbol><symbol id="linkedin" viewBox="0 0 256 256"><path d="M4.69 85.27h53.25v170.5H4.69z"/><circle cx="31.32" cy="31.56" r="31.32"/><path d="M256 255.76h-53.25v-96.69s1.82-30.86-27.38-31.59-31 31.59-31 31.59v96.69H91.11V85.27h53.25v20.53S160.48 81 192.26 81c41.79 0 49 19.83 53.93 27s9.81 25.69 9.81 51.07z"/></symbol><symbol id="html" viewBox="0 0 256 256"><path d="M19.12 0a3.86 3.86 0 0 0-3.9 4.26l19.84 222.49a6.65 6.65 0 0 0 4.5 5.41l84.17 23.37a18.24 18.24 0 0 0 8.25 0l84.43-23.41a6.65 6.65 0 0 0 4.5-5.41L240.78 4.26a3.84 3.84 0 0 0-3.9-4.26zm179.42 51c-.19 2-2.22 24.57-2.24 24.57H92.21a3.85 3.85 0 0 0-3.93 3.78v.48l1.84 20.48a4.77 4.77 0 0 0 4.66 4.26H190a3.44 3.44 0 0 1 3.48 3.38v.42c-.19 2-7.1 79.47-7.17 80.79s-2.05 2.91-4.33 3.54l-49.74 13.79-4.24 1.19s-1.91-.5-4.18-1.13L74 192.74a6.66 6.66 0 0 1-4.51-5.41l-3.2-36a3.84 3.84 0 0 1 3.9-4.26h19.89a4.79 4.79 0 0 1 4.66 4.26L96 165.44a6.61 6.61 0 0 0 4.51 5.38l23.29 6.28 4.14 1.12 4.15-1.12 23.34-6.3a6.63 6.63 0 0 0 4.5-5.38l2.53-28.21A3.85 3.85 0 0 0 159 133a3.62 3.62 0 0 0-.47 0h-89.6a4.78 4.78 0 0 1-4.66-4.26s-6.74-75.54-6.93-77.63a3.67 3.67 0 0 1 3.52-3.81h133.78a3.66 3.66 0 0 1 3.89 3.42v.32z"/></symbol><symbol id="svg" viewBox="0 0 256 256"><path d="M210.66 3.2H45.34A45.29 45.29 0 0 0 0 48.54v158.92a45.29 45.29 0 0 0 45.34 45.34h165.32A45.29 45.29 0 0 0 256 207.46V48.54A45.29 45.29 0 0 0 210.66 3.2zM77.72 210.56H76c-16.32 0-22.81-8.77-22.81-25.09v-2.76H71V187c0 6.84 1.79 8.76 6.12 8.76 4.8 0 5.88-1.68 5.88-8 0-6.6-1.08-7.56-11.17-13-11.76-6.36-18.48-11.4-18.48-26.16 0-15.73 8.4-23.05 23.05-23.05h1c16 0 23 9 23 25.09v2.16H82.64v-3.73c0-6.72-1.8-8.88-6.12-8.88-4 0-5.89 2-5.89 7.32 0 6.36 4.57 8.77 11.17 12.25 12.37 6.59 18.73 10.32 18.73 26.52 0 16.47-6.85 24.28-22.81 24.28zm63-1.68h-27l-11.88-81.64h18l7.7 62.76h.72l7.45-62.79h17zm62.3-49.7h-16.78v-9.13c0-6.6-1.79-9.12-6.12-9.12s-6.12 2.52-6.12 9.12v35.67c0 6.47 1.8 9.35 6.12 9.35s6.12-2.88 6.12-9.35v-4.93h-6.84v-14.53h23.65v18.12c0 17.05-6.72 26.18-22.08 26.18h-1.69c-16.32 0-23.29-9.13-23.29-26.18v-32.52c0-17.54 7.8-26.29 23.65-26.29h1c15.12 0 22.45 8.75 22.45 26.29zm-160.58-41v-.62a14.5 14.5 0 0 1 24.76-10.24h34.56L76.33 81.89a14.47 14.47 0 1 1 15.31-19.84 14.63 14.63 0 0 1 1.06 5.44l24.43 24.43V56a14.49 14.49 0 1 1 21.75 1.42v34.52l25.42-25.43a14.51 14.51 0 1 1 14.4 16.37l-24.44 24.44h36a14.47 14.47 0 0 1 23.32 10.88z"/></symbol><symbol id="youtube" viewBox="0 0 256 256"><path d="M211.52 217.06h-167A44.48 44.48 0 0 1 0 172.58V83.42a44.48 44.48 0 0 1 44.48-44.48h167A44.48 44.48 0 0 1 256 83.42v89.16a44.48 44.48 0 0 1-44.48 44.48zm-41.85-91.56l-68-36.09v72.19z"/></symbol><symbol id="xd" viewBox="0 0 256 256"><path d="M210.66 3.2H45.34A45.3 45.3 0 0 0 0 48.46v159a45.3 45.3 0 0 0 45.26 45.34h165.4A45.3 45.3 0 0 0 256 207.54v-159A45.3 45.3 0 0 0 210.74 3.2zM137 178.91c-.11.43-.54.11-1.18.21h-24.46c-1.71 0-2.88-.11-3.63-1.17-2.23-4.48-4.59-8.85-6.83-13.34s-4.69-8.85-7.24-13.43S88.54 142 86 137.31h-.21c-2.24 4.58-4.69 9.17-7.15 13.76s-4.9 9.17-7.26 13.65-4.9 9.07-7.36 13.44c-.42 1.07-1.27 1.17-2.45 1.17H38.09c-.43 0-.75.21-.75-.32a1.47 1.47 0 0 1 .21-1.17l33.17-54.4-32.31-54.72c-.32-.43-.43-.85-.21-1.07a1.24 1.24 0 0 1 1.07-.43h24.21a6.23 6.23 0 0 1 1.49.21 2.94 2.94 0 0 1 1.07 1c2 4.59 4.38 9.18 6.83 13.76s5 9.07 7.68 13.55 4.9 9 7.15 13.55h.21c2.23-4.7 4.58-9.28 6.93-13.76s4.8-9 7.25-13.44 4.81-9.06 7.15-13.44a1.83 1.83 0 0 1 .64-1.07 2 2 0 0 1 1.39-.21h22.5a1 1 0 0 1 1.18.75c.11.11-.11.53-.32.75l-32 52.8 34.14 56a1.88 1.88 0 0 1 .23 1.24zm80.73-4.16a81.45 81.45 0 0 1-17.38 5.12 94.17 94.17 0 0 1-16.42 1.5 53.13 53.13 0 0 1-23-4.8 37.2 37.2 0 0 1-16.11-14.51 46.14 46.14 0 0 1-5.82-24.32 43.74 43.74 0 0 1 5.87-22.5 44.34 44.34 0 0 1 17-16.54 54.7 54.7 0 0 1 27-6.19 21 21 0 0 1 2.24.11c1 .11 2 .11 3.3.21V59.11c0-.75.32-1.18 1.07-1.18H217a1 1 0 0 1 1.07.75v101.75c0 1.92.11 4.06.21 6.4s.32 4.37.43 6.19a1.73 1.73 0 0 1-1 1.7zm-29.76-62.4a26.25 26.25 0 0 0-12.05 2.78 24 24 0 0 0-9.06 7.89 23.62 23.62 0 0 0-3.53 13.55 29.78 29.78 0 0 0 1.82 11 20.82 20.82 0 0 0 4.8 7.58 18.48 18.48 0 0 0 7.26 4.26 27.78 27.78 0 0 0 8.86 1.39c1.59 0 3.09-.11 4.48-.21a9.14 9.14 0 0 0 3.84-.53v-46.94a28.37 28.37 0 0 0-2.87-.53 25 25 0 0 0-3.54-.27z"/></symbol><symbol id="js" viewBox="0 0 256 256"><path d="M0 0v256h256V0zm134.93 219.25a30.2 30.2 0 0 1-19.32 15.13 46.45 46.45 0 0 1-34.22-4.2A38.47 38.47 0 0 1 67.28 214q9.73-6 19.45-11.93a11.78 11.78 0 0 1 1.36 2.19 20.56 20.56 0 0 0 8.84 9.21 13.45 13.45 0 0 0 16.72-5 101.36 101.36 0 0 0 1.46-28.93c0-20.69.1-41.23.1-61.91h24c0 22 .11 44 0 65.92a74.36 74.36 0 0 1-4.28 35.7zm99.33-6.77c-8.33 28.48-54.72 29.4-73.28 10.58a43.38 43.38 0 0 1-8.71-11.85c9.86-5.67 9.86-5.67 19.46-11.26a27.4 27.4 0 0 0 18.68 14.2c11.76 1.44 23.56-2.6 20.93-15.09-2.73-10.24-24.06-12.68-38.6-23.55a33.51 33.51 0 0 1-6.7-46.92l.61-.8a34.25 34.25 0 0 1 18.16-10.71l7.55-1a36.08 36.08 0 0 1 30.17 11 46.85 46.85 0 0 1 6.15 8.27c-7.71 4.91-7.69 4.87-18.74 12a17.87 17.87 0 0 0-10.41-9.67 12.28 12.28 0 0 0-16.07 6.62 3.65 3.65 0 0 0-.14.35 13.11 13.11 0 0 0 .46 7.49c2.61 5.94 11.34 8.52 19.18 12.12 22.53 9.15 30.18 19 32 30.64a35.17 35.17 0 0 1-.74 17.64z"/></symbol><symbol id="settings" viewBox="0 0 256 256"><path d="M256 142.05V114l-36.06-12.31a95.06 95.06 0 0 0-8.29-20l16.8-34.21-19.88-19.93-34.21 16.8a95.06 95.06 0 0 0-20-8.29L142.05 0H114l-12.36 36.06a95.06 95.06 0 0 0-20 8.29l-34.21-16.8-19.88 19.88 16.8 34.21a95.06 95.06 0 0 0-8.29 20L0 114v28.1l36.06 12.31a95.06 95.06 0 0 0 8.29 20l-16.8 34.21 19.88 19.88 34.21-16.8a95.06 95.06 0 0 0 20 8.29L114 256h28.1l12.31-36.06a95.06 95.06 0 0 0 20-8.29l34.21 16.8 19.88-19.88-16.8-34.21a95.06 95.06 0 0 0 8.29-20zM169.16 128A41.16 41.16 0 1 1 128 86.84 41.16 41.16 0 0 1 169.16 128z"/></symbol></svg>