<svg xmlns="http://www.w3.org/2000/svg" viewBox="0 0 256 256" width="256" height="256"><path d="M210.66 3.2H45.34A45.29 45.29 0 0 0 0 48.54v158.92a45.29 45.29 0 0 0 45.34 45.34h165.32A45.29 45.29 0 0 0 256 207.46V48.54A45.29 45.29 0 0 0 210.66 3.2zM77.72 210.56H76c-16.32 0-22.81-8.77-22.81-25.09v-2.76H71V187c0 6.84 1.79 8.76 6.12 8.76 4.8 0 5.88-1.68 5.88-8 0-6.6-1.08-7.56-11.17-13-11.76-6.36-18.48-11.4-18.48-26.16 0-15.73 8.4-23.05 23.05-23.05h1c16 0 23 9 23 25.09v2.16H82.64v-3.73c0-6.72-1.8-8.88-6.12-8.88-4 0-5.89 2-5.89 7.32 0 6.36 4.57 8.77 11.17 12.25 12.37 6.59 18.73 10.32 18.73 26.52 0 16.47-6.85 24.28-22.81 24.28zm63-1.68h-27l-11.88-81.64h18l7.7 62.76h.72l7.45-62.79h17zm62.3-49.7h-16.78v-9.13c0-6.6-1.79-9.12-6.12-9.12s-6.12 2.52-6.12 9.12v35.67c0 6.47 1.8 9.35 6.12 9.35s6.12-2.88 6.12-9.35v-4.93h-6.84v-14.53h23.65v18.12c0 17.05-6.72 26.18-22.08 26.18h-1.69c-16.32 0-23.29-9.13-23.29-26.18v-32.52c0-17.54 7.8-26.29 23.65-26.29h1c15.12 0 22.45 8.75 22.45 26.29zm-160.58-41v-.62a14.5 14.5 0 0 1 24.76-10.24h34.56L76.33 81.89a14.47 14.47 0 1 1 15.31-19.84 14.63 14.63 0 0 1 1.06 5.44l24.43 24.43V56a14.49 14.49 0 1 1 21.75 1.42v34.52l25.42-25.43a14.51 14.51 0 1 1 14.4 16.37l-24.44 24.44h36a14.47 14.47 0 0 1 23.32 10.88z"/></svg>