<svg xmlns="http://www.w3.org/2000/svg" width="51.282" height="50" viewBox="0 0 51.282 50" id="photoshop">
  <g id="Surfaces" transform="translate(0 0)">
    <g id="Photo_Surface" data-name="Photo Surface">
      <g id="Outline_no_shadow" data-name="Outline no shadow">
        <path id="Path_356103" data-name="Path 356103" d="M9.081,0H42.2a9.082,9.082,0,0,1,9.081,9.081V40.919A9.082,9.082,0,0,1,42.2,50H9.081A9.082,9.082,0,0,1,0,40.919V9.081A9.082,9.082,0,0,1,9.081,0Z" transform="translate(0 0)" fill="#001e36"/>
      </g>
    </g>
  </g>
  <g id="Outlined_Mnemonics_Logos" data-name="Outlined Mnemonics Logos" transform="translate(10.621 12.736)">
    <g id="Ps">
      <path id="Path_356104" data-name="Path 356104" d="M11.471,36.082V14.1c0-.16.069-.241.206-.241.367,0,.7-.006,1.206-.018l1.633-.034,1.858-.034q.981-.017,1.944-.018a12.939,12.939,0,0,1,4.4.654A7.64,7.64,0,0,1,25.6,16.163a6.73,6.73,0,0,1,1.565,2.425,8.051,8.051,0,0,1,.482,2.769A7.648,7.648,0,0,1,26.369,25.9a7.192,7.192,0,0,1-3.44,2.6,13.714,13.714,0,0,1-4.817.721q-.757,0-1.067-.017c-.206-.011-.516-.018-.929-.018v6.864a.273.273,0,0,1-.232.309.267.267,0,0,1-.077,0h-4.1C11.552,36.357,11.471,36.266,11.471,36.082Zm4.646-18.1v7.17q.447.035.826.034h1.135a8.065,8.065,0,0,0,2.459-.393,3.718,3.718,0,0,0,1.755-1.135,3.3,3.3,0,0,0,.671-2.2,3.489,3.489,0,0,0-.5-1.893,3.218,3.218,0,0,0-1.5-1.221,6.392,6.392,0,0,0-2.511-.43q-.826,0-1.462.017t-.878.052Z" transform="translate(-11.471 -13.755)" fill="#31a8ff"/>
      <path id="Path_356105" data-name="Path 356105" d="M42.415,24.276a8.033,8.033,0,0,0-2.047-.723,10.877,10.877,0,0,0-2.391-.275,4.46,4.46,0,0,0-1.29.155,1.161,1.161,0,0,0-.671.431,1.079,1.079,0,0,0-.171.584.907.907,0,0,0,.206.551,2.341,2.341,0,0,0,.722.568,14.319,14.319,0,0,0,1.514.706,15.022,15.022,0,0,1,3.285,1.565,5,5,0,0,1,1.685,1.771,4.731,4.731,0,0,1,.5,2.2,4.947,4.947,0,0,1-.826,2.839,5.433,5.433,0,0,1-2.391,1.909,9.629,9.629,0,0,1-3.87.688,13.986,13.986,0,0,1-2.906-.276,9.219,9.219,0,0,1-2.184-.688.445.445,0,0,1-.242-.413V32.153a.2.2,0,0,1,.086-.189.168.168,0,0,1,.19.017,9.174,9.174,0,0,0,2.649,1.049,10.883,10.883,0,0,0,2.511.327,3.858,3.858,0,0,0,1.771-.309.972.972,0,0,0,.568-.894,1.139,1.139,0,0,0-.516-.86,8.533,8.533,0,0,0-2.1-1,12.679,12.679,0,0,1-3.044-1.548,5.249,5.249,0,0,1-1.617-1.806,4.752,4.752,0,0,1-.5-2.184,4.928,4.928,0,0,1,.723-2.581,5.242,5.242,0,0,1,2.236-1.96,8.433,8.433,0,0,1,3.784-.757,16.786,16.786,0,0,1,2.648.189,6.961,6.961,0,0,1,1.844.5.315.315,0,0,1,.206.19.928.928,0,0,1,.034.257v3.475a.232.232,0,0,1-.1.206A.333.333,0,0,1,42.415,24.276Z" transform="translate(-12.942 -14.177)" fill="#31a8ff"/>
    </g>
  </g>
</svg>
